<?xml version="1.0" encoding="utf-8"?>
<svg width="164" height="56" viewBox="0 0 164 56" fill="none" xmlns="http://www.w3.org/2000/svg">
  <rect width="164" height="56" rx="8" style="fill: url(&quot;#gradient-0&quot;);" y="-0.000183105"/>
  <rect x="1.05" y="1.04982" width="161.9" height="53.9" rx="6.95" stroke="white" stroke-opacity="0.15" stroke-width="2.1"/>
  <defs>
    <linearGradient gradientUnits="userSpaceOnUse" x1="82" y1="0" x2="82" y2="56" id="gradient-0" gradientTransform="matrix(0.987668, -0.156559, 0.156083, 0.984662, -7.72943, 13.696739)">
      <stop offset="0" style="stop-color: rgb(55, 54, 59);"/>
      <stop offset="1" style="stop-color: rgb(9.6672% 9.3044% 11.539%)"/>
    </linearGradient>
  </defs>
  <path d="M 32.007 12.35 C 23.167 12.35 16.007 19.51 16.007 28.35 C 16.007 35.41 20.587 41.4 26.937 43.51 C 27.737 43.66 28.027 43.16 28.027 42.74 C 28.027 42.36 28.017 41.36 28.007 40.03 C 23.547 41 22.607 37.88 22.607 37.88 C 21.877 36.02 20.827 35.52 20.827 35.52 C 19.377 34.52 20.937 34.53 20.937 34.53 C 22.537 34.64 23.387 36.17 23.387 36.17 C 24.807 38.6 27.127 37.9 28.037 37.5 C 28.187 36.47 28.597 35.77 29.057 35.36 C 25.487 34.96 21.737 33.57 21.737 27.43 C 21.737 25.68 22.367 24.25 23.397 23.13 C 23.227 22.72 22.677 21.09 23.557 18.9 C 23.557 18.9 24.907 18.47 27.967 20.55 C 29.247 20.19 30.617 20.02 31.977 20.01 C 33.337 20.02 34.707 20.19 35.987 20.55 C 39.047 18.47 40.397 18.9 40.397 18.9 C 41.277 21.09 40.727 22.72 40.557 23.13 C 41.587 24.25 42.217 25.68 42.217 27.43 C 42.217 33.58 38.457 34.95 34.877 35.35 C 35.457 35.85 35.977 36.85 35.977 38.37 C 35.977 40.55 35.957 42.31 35.957 42.85 C 35.957 43.27 36.247 43.78 37.067 43.62 C 43.427 41.4 48.007 35.41 48.007 28.35 C 48.007 19.51 40.847 12.35 32.007 12.35 Z" fill="#e3e3e3" style="stroke-width: 1; transform-box: fill-box; transform-origin: 50% 50%;"/>
  <path d="M 71.35 48.518 Q 68.452 48.518 66.251 47.254 Q 64.05 45.989 62.812 43.651 Q 61.575 41.313 61.575 38.1 Q 61.575 34.765 62.881 32.42 Q 64.186 30.075 66.381 28.838 Q 68.575 27.6 71.296 27.6 Q 73.059 27.6 74.57 28.106 Q 76.081 28.612 77.264 29.542 Q 78.446 30.472 79.178 31.736 Q 79.909 33.001 80.1 34.518 L 75.22 34.518 Q 75.042 33.89 74.707 33.391 Q 74.372 32.891 73.88 32.543 Q 73.388 32.194 72.766 32.016 Q 72.143 31.839 71.378 31.839 Q 69.901 31.839 68.801 32.563 Q 67.7 33.288 67.105 34.676 Q 66.511 36.063 66.511 38.032 Q 66.511 40.015 67.092 41.409 Q 67.673 42.804 68.767 43.542 Q 69.86 44.28 71.392 44.28 Q 72.772 44.28 73.723 43.829 Q 74.673 43.378 75.165 42.537 Q 75.657 41.696 75.657 40.561 L 76.573 40.684 L 71.583 40.684 L 71.583 37.143 L 80.319 37.143 L 80.319 39.823 Q 80.319 42.544 79.171 44.492 Q 78.022 46.44 75.992 47.479 Q 73.962 48.518 71.35 48.518 Z M 82.779 48.245 L 82.779 32.96 L 87.55 32.96 L 87.55 48.245 Z M 85.157 31.169 Q 84.146 31.169 83.421 30.492 Q 82.696 29.815 82.696 28.872 Q 82.696 27.915 83.421 27.245 Q 84.146 26.575 85.157 26.575 Q 86.183 26.575 86.907 27.238 Q 87.632 27.901 87.632 28.872 Q 87.632 29.829 86.907 30.499 Q 86.183 31.169 85.157 31.169 Z M 98.62 32.96 L 98.62 36.501 L 89.077 36.501 L 89.077 32.96 Z M 91.1 29.323 L 95.872 29.323 L 95.872 43.569 Q 95.872 44.171 96.159 44.465 Q 96.446 44.759 97.089 44.759 Q 97.335 44.759 97.779 44.704 Q 98.223 44.649 98.415 44.595 L 99.03 48.067 Q 98.223 48.3 97.471 48.382 Q 96.719 48.464 96.05 48.464 Q 93.616 48.464 92.358 47.322 Q 91.1 46.181 91.1 43.993 Z M 101.336 48.245 L 101.336 27.874 L 106.162 27.874 L 106.162 35.872 L 114.297 35.872 L 114.297 27.874 L 119.109 27.874 L 119.109 48.245 L 114.297 48.245 L 114.297 39.809 L 106.162 39.809 L 106.162 48.245 Z M 127.01 48.436 Q 125.41 48.436 124.214 47.725 Q 123.017 47.015 122.361 45.716 Q 121.705 44.417 121.705 42.694 L 121.705 32.96 L 126.476 32.96 L 126.476 41.765 Q 126.476 43.05 127.139 43.781 Q 127.802 44.513 128.965 44.513 Q 129.758 44.513 130.339 44.178 Q 130.92 43.843 131.248 43.207 Q 131.576 42.571 131.576 41.683 L 131.576 32.96 L 136.347 32.96 L 136.347 48.245 L 131.863 48.245 L 131.781 44.39 L 131.986 44.39 Q 131.412 46.222 130.209 47.329 Q 129.006 48.436 127.01 48.436 Z M 147.928 48.464 Q 146.766 48.464 145.911 48.074 Q 145.057 47.684 144.496 47.069 Q 143.936 46.454 143.635 45.77 L 143.471 45.77 L 143.471 48.245 L 138.754 48.245 L 138.754 27.874 L 143.525 27.874 L 143.525 35.585 L 143.635 35.585 Q 143.922 34.888 144.476 34.245 Q 145.029 33.602 145.884 33.185 Q 146.738 32.768 147.955 32.768 Q 149.568 32.768 150.956 33.609 Q 152.344 34.45 153.198 36.193 Q 154.053 37.936 154.053 40.616 Q 154.053 43.214 153.232 44.957 Q 152.412 46.7 151.018 47.582 Q 149.623 48.464 147.928 48.464 Z M 146.301 44.745 Q 147.217 44.745 147.853 44.232 Q 148.488 43.72 148.816 42.783 Q 149.145 41.847 149.145 40.616 Q 149.145 39.372 148.816 38.449 Q 148.488 37.526 147.859 37.014 Q 147.23 36.501 146.301 36.501 Q 145.385 36.501 144.742 37 Q 144.1 37.499 143.758 38.422 Q 143.416 39.345 143.416 40.616 Q 143.416 41.86 143.758 42.79 Q 144.1 43.72 144.749 44.232 Q 145.398 44.745 146.301 44.745 Z" transform="matrix(0.687957, 0, 0, 0.619958, 18.194714, 12.310665)" style="fill: rgb(255, 255, 255); text-wrap-mode: nowrap;"/>
  <text style="white-space: pre; fill: rgb(51, 51, 51); font-family: Arial, sans-serif; font-size: 28px;" x="125.982" y="52.291"> </text>
  <path d="M 62.651 48.245 L 62.651 30.055 L 68.877 30.055 Q 71.002 30.055 72.375 30.782 Q 73.748 31.508 74.414 32.778 Q 75.079 34.047 75.079 35.671 Q 75.079 37.295 74.414 38.54 Q 73.748 39.785 72.381 40.487 Q 71.014 41.189 68.89 41.189 L 63.945 41.189 L 63.945 39.126 L 68.78 39.126 Q 70.22 39.126 71.093 38.705 Q 71.966 38.283 72.369 37.508 Q 72.772 36.733 72.772 35.671 Q 72.772 34.584 72.369 33.785 Q 71.966 32.985 71.087 32.54 Q 70.208 32.094 68.755 32.094 L 64.971 32.094 L 64.971 48.245 Z M 73.101 48.245 L 68.707 40.054 L 71.319 40.054 L 75.787 48.245 Z M 83.597 48.538 Q 81.619 48.538 80.185 47.659 Q 78.75 46.78 77.975 45.205 Q 77.2 43.63 77.2 41.531 Q 77.2 39.431 77.957 37.832 Q 78.714 36.232 80.099 35.329 Q 81.485 34.426 83.34 34.426 Q 84.427 34.426 85.483 34.786 Q 86.539 35.146 87.4 35.946 Q 88.26 36.745 88.773 38.051 Q 89.286 39.358 89.286 41.25 L 89.286 42.165 L 78.689 42.165 L 78.689 40.31 L 88.101 40.31 L 87.076 40.994 Q 87.076 39.651 86.655 38.607 Q 86.234 37.563 85.404 36.971 Q 84.573 36.379 83.34 36.379 Q 82.107 36.379 81.228 36.983 Q 80.349 37.588 79.886 38.558 Q 79.422 39.529 79.422 40.64 L 79.422 41.872 Q 79.422 43.386 79.947 44.442 Q 80.472 45.498 81.418 46.041 Q 82.364 46.585 83.609 46.585 Q 84.415 46.585 85.074 46.353 Q 85.733 46.121 86.209 45.651 Q 86.685 45.181 86.942 44.485 L 89.066 45.071 Q 88.748 46.096 87.992 46.878 Q 87.235 47.659 86.118 48.099 Q 85.001 48.538 83.597 48.538 Z M 91.716 53.348 L 91.716 34.597 L 93.84 34.597 L 93.84 36.782 L 94.084 36.782 Q 94.316 36.416 94.731 35.86 Q 95.146 35.305 95.927 34.865 Q 96.709 34.426 98.039 34.426 Q 99.748 34.426 101.049 35.28 Q 102.349 36.135 103.087 37.716 Q 103.826 39.297 103.826 41.457 Q 103.826 43.63 103.093 45.217 Q 102.361 46.804 101.061 47.671 Q 99.761 48.538 98.052 48.538 Q 96.758 48.538 95.964 48.092 Q 95.171 47.647 94.743 47.079 Q 94.316 46.511 94.084 46.133 L 93.913 46.133 L 93.913 53.348 Z M 97.722 46.573 Q 99.004 46.573 99.864 45.883 Q 100.725 45.193 101.158 44.027 Q 101.592 42.861 101.592 41.433 Q 101.592 40.017 101.165 38.875 Q 100.737 37.734 99.877 37.063 Q 99.016 36.391 97.722 36.391 Q 96.465 36.391 95.61 37.026 Q 94.755 37.661 94.322 38.79 Q 93.889 39.919 93.889 41.433 Q 93.889 42.947 94.328 44.107 Q 94.768 45.266 95.628 45.919 Q 96.489 46.573 97.722 46.573 Z M 111.859 48.538 Q 110.003 48.538 108.605 47.659 Q 107.208 46.78 106.426 45.193 Q 105.645 43.606 105.645 41.506 Q 105.645 39.37 106.426 37.777 Q 107.208 36.184 108.605 35.305 Q 110.003 34.426 111.859 34.426 Q 113.727 34.426 115.131 35.305 Q 116.534 36.184 117.316 37.777 Q 118.097 39.37 118.097 41.506 Q 118.097 43.606 117.316 45.193 Q 116.534 46.78 115.131 47.659 Q 113.727 48.538 111.859 48.538 Z M 111.859 46.573 Q 113.238 46.573 114.129 45.864 Q 115.021 45.156 115.448 44.003 Q 115.875 42.849 115.875 41.506 Q 115.875 40.151 115.448 38.985 Q 115.021 37.819 114.129 37.105 Q 113.238 36.391 111.859 36.391 Q 110.492 36.391 109.613 37.105 Q 108.734 37.819 108.306 38.979 Q 107.879 40.139 107.879 41.506 Q 107.879 42.849 108.306 44.003 Q 108.734 45.156 109.613 45.864 Q 110.492 46.573 111.859 46.573 Z M 125.153 48.538 Q 123.749 48.538 122.657 48.129 Q 121.564 47.72 120.856 46.914 Q 120.148 46.109 119.904 44.937 L 121.991 44.436 Q 122.284 45.559 123.096 46.084 Q 123.908 46.609 125.129 46.609 Q 126.557 46.609 127.405 45.999 Q 128.254 45.388 128.254 44.546 Q 128.254 43.838 127.759 43.368 Q 127.265 42.898 126.252 42.666 L 123.981 42.129 Q 122.125 41.689 121.222 40.768 Q 120.319 39.846 120.319 38.405 Q 120.319 37.234 120.978 36.336 Q 121.637 35.439 122.779 34.932 Q 123.92 34.426 125.373 34.426 Q 126.777 34.426 127.759 34.847 Q 128.742 35.268 129.359 36.007 Q 129.975 36.745 130.28 37.71 L 128.29 38.222 Q 128.01 37.49 127.357 36.892 Q 126.703 36.294 125.385 36.294 Q 124.164 36.294 123.352 36.855 Q 122.541 37.417 122.541 38.271 Q 122.541 39.028 123.09 39.486 Q 123.639 39.944 124.836 40.224 L 126.899 40.713 Q 128.754 41.152 129.646 42.074 Q 130.537 42.996 130.537 44.4 Q 130.537 45.596 129.859 46.53 Q 129.182 47.464 127.967 48.001 Q 126.752 48.538 125.153 48.538 Z M 132.893 48.245 L 132.893 34.597 L 135.09 34.597 L 135.09 48.245 Z M 134.004 32.363 Q 133.381 32.363 132.929 31.935 Q 132.478 31.508 132.478 30.91 Q 132.478 30.299 132.929 29.878 Q 133.381 29.457 134.004 29.457 Q 134.638 29.457 135.09 29.878 Q 135.542 30.299 135.542 30.91 Q 135.542 31.508 135.09 31.935 Q 134.638 32.363 134.004 32.363 Z M 143.918 34.597 L 143.918 36.477 L 136.862 36.477 L 136.862 34.597 Z M 138.913 31.349 L 141.11 31.349 L 141.11 44.705 Q 141.11 45.62 141.482 46.041 Q 141.855 46.463 142.722 46.463 Q 142.929 46.463 143.253 46.414 Q 143.576 46.365 143.845 46.316 L 144.296 48.172 Q 143.955 48.294 143.521 48.355 Q 143.088 48.416 142.66 48.416 Q 140.89 48.416 139.901 47.482 Q 138.913 46.548 138.913 44.876 Z M 151.793 48.538 Q 149.937 48.538 148.539 47.659 Q 147.141 46.78 146.36 45.193 Q 145.579 43.606 145.579 41.506 Q 145.579 39.37 146.36 37.777 Q 147.141 36.184 148.539 35.305 Q 149.937 34.426 151.793 34.426 Q 153.66 34.426 155.064 35.305 Q 156.468 36.184 157.25 37.777 Q 158.031 39.37 158.031 41.506 Q 158.031 43.606 157.25 45.193 Q 156.468 46.78 155.064 47.659 Q 153.66 48.538 151.793 48.538 Z M 151.793 46.573 Q 153.172 46.573 154.063 45.864 Q 154.954 45.156 155.382 44.003 Q 155.809 42.849 155.809 41.506 Q 155.809 40.151 155.382 38.985 Q 154.954 37.819 154.063 37.105 Q 153.172 36.391 151.793 36.391 Q 150.425 36.391 149.546 37.105 Q 148.667 37.819 148.24 38.979 Q 147.813 40.139 147.813 41.506 Q 147.813 42.849 148.24 44.003 Q 148.667 45.156 149.546 45.864 Q 150.425 46.573 151.793 46.573 Z M 160.448 48.245 L 160.448 34.597 L 162.572 34.597 L 162.572 36.696 L 162.719 36.696 Q 163.097 35.659 164.068 35.03 Q 165.038 34.401 166.259 34.401 Q 166.503 34.401 166.839 34.413 Q 167.174 34.426 167.37 34.438 L 167.37 36.648 Q 167.272 36.623 166.881 36.574 Q 166.491 36.525 166.051 36.525 Q 165.075 36.525 164.299 36.934 Q 163.524 37.343 163.085 38.058 Q 162.645 38.772 162.645 39.7 L 162.645 48.245 Z M 169.089 53.189 L 169.65 51.285 L 169.882 51.346 Q 170.554 51.517 171.103 51.437 Q 171.652 51.358 172.092 50.894 Q 172.531 50.43 172.861 49.454 L 173.251 48.318 L 168.039 34.597 L 170.444 34.597 L 173.349 42.69 Q 173.813 43.96 174.13 45.205 Q 174.448 46.45 174.802 47.622 L 173.996 47.622 Q 174.35 46.45 174.674 45.199 Q 174.997 43.948 175.449 42.69 L 178.379 34.597 L 180.772 34.597 L 174.777 50.284 Q 174.362 51.37 173.783 52.072 Q 173.203 52.774 172.434 53.11 Q 171.664 53.446 170.7 53.446 Q 170.114 53.446 169.687 53.36 Q 169.26 53.275 169.089 53.189 Z M 194.701 48.538 Q 192.845 48.538 191.447 47.659 Q 190.05 46.78 189.268 45.193 Q 188.487 43.606 188.487 41.506 Q 188.487 39.37 189.268 37.777 Q 190.05 36.184 191.447 35.305 Q 192.845 34.426 194.701 34.426 Q 196.569 34.426 197.973 35.305 Q 199.376 36.184 200.158 37.777 Q 200.939 39.37 200.939 41.506 Q 200.939 43.606 200.158 45.193 Q 199.376 46.78 197.973 47.659 Q 196.569 48.538 194.701 48.538 Z M 194.701 46.573 Q 196.08 46.573 196.972 45.864 Q 197.863 45.156 198.29 44.003 Q 198.717 42.849 198.717 41.506 Q 198.717 40.151 198.29 38.985 Q 197.863 37.819 196.972 37.105 Q 196.08 36.391 194.701 36.391 Q 193.334 36.391 192.455 37.105 Q 191.576 37.819 191.148 38.979 Q 190.721 40.139 190.721 41.506 Q 190.721 42.849 191.148 44.003 Q 191.576 45.156 192.455 45.864 Q 193.334 46.573 194.701 46.573 Z M 205.554 40.066 L 205.554 48.245 L 203.356 48.245 L 203.356 34.597 L 205.468 34.597 L 205.48 37.905 L 205.175 37.905 Q 205.798 36.013 206.951 35.219 Q 208.105 34.426 209.655 34.426 Q 211.035 34.426 212.073 34.993 Q 213.11 35.561 213.69 36.702 Q 214.27 37.844 214.27 39.577 L 214.27 48.245 L 212.073 48.245 L 212.073 39.761 Q 212.073 38.186 211.248 37.295 Q 210.424 36.403 208.996 36.403 Q 208.02 36.403 207.238 36.831 Q 206.457 37.258 206.005 38.076 Q 205.554 38.894 205.554 40.066 Z" transform="matrix(0.576917, 0, 0, 0.542877, 25.145592, -1.148193)" style="fill: rgb(136, 136, 136); text-wrap-mode: nowrap;"/>
  <path transform="matrix(0.576917, 0, 0, 0.542877, 25.145592, -1.148193)" style="fill: rgb(136, 136, 136); text-wrap-mode: nowrap;"/>
</svg>